<svg width="512" height="512" version="1.1" viewBox="0 0 512 512" xmlns="http://www.w3.org/2000/svg"><defs><filter id="a" color-interpolation-filters="sRGB"><feFlood flood-color="rgb(0,0,0)" flood-opacity=".49804" result="flood"/><feComposite in="flood" in2="SourceGraphic" operator="in" result="composite1"/><feGaussianBlur in="composite1" result="blur" stdDeviation="3"/><feOffset dx="6" dy="6" result="offset"/><feComposite in="SourceGraphic" in2="offset" result="composite2"/></filter></defs><style>.f{fill:#1e293b}.t{fill:#e2e8f0}@media(prefers-color-scheme:dark){.f{fill:#e2e8f0}.t{fill:#1e293b}}</style><circle class="f" cx="256" cy="256" r="256" fill-opacity=".7" fill-rule="evenodd"/><g filter="url(#a)"><path class="t" d="m90.001 170.7h33.253q32.197 0 43.492 2.9506 11.401 2.9506 17.312 9.6948 5.9114 6.7441 7.3894 15.07 1.4779 8.22 1.4779 32.456v59.75q0 22.973-2.2168 30.771-2.1112 7.6928-7.495 12.119-5.3837 4.3206-13.301 6.112-7.9172 1.6861-23.858 1.6861h-56.054zm44.443 29.19v112.23q9.6064 0 11.823-3.7937 2.2168-3.899 2.2168-20.97v-66.283q0-11.591-0.73895-14.858-0.73895-3.2671-3.3781-4.742-2.6391-1.5807-9.923-1.5807z"/><path class="t" d="m315.06 170.7-22.591 170.61h-67.456l-25.652-170.61h46.871q8.1285 70.498 11.612 119.18 3.4837-49.212 7.2839-87.464l3.0613-31.719z"/><path class="t" d="m396.56 170.7 25.441 170.61h-45.498l-2.2168-30.665h-15.94l-2.6391 30.665h-46.026l22.591-170.61zm-23.541 109.7q-3.3781-28.979-6.756-71.552-6.756 48.896-8.4452 71.552z"/></g></svg>
